<svg id="Capa_1" enable-background="new 0 0 512 512" height="512" viewBox="0 0 512 512" width="512" xmlns="http://www.w3.org/2000/svg"><g><g><path d="m135.347 455.619c18.146-46.441 57.218-68.622 57.218-68.622h24.219l39.216 62.525-39.216 54.978h-41.624z" fill="#60d9a7"/><path d="m336.84 504.5h-41.624l-39.216-54.978 39.215-62.525h24.219s39.072 22.181 57.218 68.622z" fill="#60d9a7"/><path d="m216.784 386.997h78.431v117.503h-78.431z" fill="#ffbe9c"/><path d="m217.31 387.836-.526-.839h-24.219s-39.071 22.181-57.218 68.622l19.642 24.116c4.289-46.108 29.659-83.088 62.321-91.899z" fill="#00cd8c"/><path d="m175.16 455.619v48.881h-48.881c0-18.548 3.572-34.831 9.068-48.881z" fill="#ffd3bc"/><path d="m385.72 504.5h-48.88v-48.881h39.813c5.496 14.05 9.067 30.333 9.067 48.881z" fill="#ffd3bc"/><path d="m464.133 225.573.012-.022c20.54-36.496 8.206-82.714-27.786-104.124l-.001-.001v-.024c-.511-41.864-34.324-75.677-76.187-76.187h-.025c-21.41-35.993-67.628-48.327-104.124-27.787l-.022.011-.022-.012c-36.496-20.54-82.714-8.206-104.124 27.786l-.001.001h-.024c-41.864.511-75.677 34.324-76.188 76.187v.025c-35.993 21.41-48.327 67.628-27.787 104.125l.012.021z" fill="#ed9b83"/><g><path d="m118.347 210.375c0-85.51 54.269-164.546 106.647-202.555-28.645-2.536-57.507 11.11-73.141 37.393v.001h-.024c-41.864.511-75.677 34.323-76.187 76.187v.025c-35.993 21.41-48.327 67.628-27.787 104.125l.012.021h70.924c-.287-5.005-.444-10.069-.444-15.197z" fill="#e7886e"/></g><circle cx="81.049" cy="236.413" fill="#ffbe9c" r="39.212"/><circle cx="430.95" cy="236.413" fill="#ffbe9c" r="39.212"/><path d="m414.728 157.491c-8.92-20.596-29.95-33.368-52.357-32.058-25.48 1.49-54.448 8.258-79.578 26.875-15.859 11.749-37.726 11.749-53.585 0-25.127-18.615-54.09-25.384-79.567-26.875-22.583-1.322-43.626 11.713-52.558 32.496-9.003 20.947-13.983 44.028-13.971 68.274.045 95.574 77.316 172.807 172.89 172.805 95.486-.001 172.886-77.403 172.886-172.888 0-24.384-5.049-47.589-14.16-68.629z" fill="#ffd3bc"/><path d="m118.347 210.375c0-29.139 6.314-57.521 16.695-83.791-16.674 3.654-30.997 15.145-37.96 31.346-9.002 20.948-13.982 44.028-13.971 68.274.037 77.656 51.057 143.204 121.455 165.05-49.926-34.151-86.219-100.039-86.219-180.879z" fill="#ffbe9c"/><g fill="#ff9db0"><ellipse cx="147.872" cy="262.303" rx="39.897" ry="31.772"/><ellipse cx="364.128" cy="262.303" rx="39.897" ry="31.772"/></g><path d="m154.347 493.615c0-13.375 1.768-26.178 4.99-37.996h-23.99c-5.496 14.05-9.068 30.333-9.068 48.881h28.462c-.259-3.58-.394-7.211-.394-10.885z" fill="#ffbe9c"/></g><g><path d="m171.126 207.915c-4.142 0-7.5 3.358-7.5 7.5v16.309c0 4.142 3.358 7.5 7.5 7.5s7.5-3.358 7.5-7.5v-16.309c0-4.142-3.358-7.5-7.5-7.5z"/><path d="m333.374 215.415v16.309c0 4.142 3.358 7.5 7.5 7.5s7.5-3.358 7.5-7.5v-16.309c0-4.142-3.358-7.5-7.5-7.5s-7.5 3.358-7.5 7.5z"/><path d="m283.304 225.584c-3.123-2.721-7.86-2.396-10.582.727-4.221 4.844-10.317 7.622-16.723 7.622s-12.501-2.778-16.723-7.622c-2.721-3.122-7.459-3.448-10.581-.727-3.123 2.722-3.448 7.459-.727 10.582 7.07 8.113 17.287 12.766 28.03 12.766s20.96-4.653 28.031-12.766c2.723-3.122 2.398-7.86-.725-10.582z"/><path d="m34.342 236.419c0 25.756 20.955 46.711 46.711 46.711 1.209 0 2.421-.065 3.632-.161 15.487 46.936 49.769 84.811 92.533 105.562-13.684 10.613-36.142 31.838-48.849 64.35-.001.002-.002.004-.003.007-6.359 16.255-9.583 33.619-9.583 51.612 0 4.142 3.358 7.5 7.5 7.5h259.435c4.142 0 7.5-3.358 7.5-7.5 0-17.989-3.223-35.35-9.58-51.603-.001-.002-.001-.004-.002-.006-12.81-32.784-35.264-53.94-48.936-64.477 43.389-21.127 77.092-59.15 92.503-105.455 33.801 2.751 59.199-30.54 47.685-62.382 15.705-37.175 2.94-80.765-31.183-103.38-2.566-42.713-36.726-76.778-79.323-79.326-23.555-35.582-70.09-48.082-108.379-28.913-38.19-19.141-84.782-6.739-108.385 28.915-42.644 2.562-76.758 36.644-79.323 79.325-34.11 22.608-46.892 66.191-31.182 103.38-1.79 4.949-2.771 10.282-2.771 15.841zm15 0c0-15.716 11.606-29.257 27.503-31.418-.885 7.62-1.172 13.974-1.23 21.212.008 13.602 1.548 27.806 4.887 41.912-17.233-.295-31.16-14.404-31.16-31.706zm91.241 226.702h27.08v33.879h-33.67c.658-11.705 2.865-23.055 6.59-33.879zm76.202-14.638c-4.142 0-7.5 3.358-7.5 7.5v41.017h-26.623v-41.38c0-4.142-3.358-7.5-7.5-7.5h-28.298c14.921-30.063 38.189-47.305 46.435-52.74 5.239 1.933 10.571 3.622 15.986 5.06v25.816c0 4.142 3.358 7.5 7.5 7.5s7.5-3.358 7.5-7.5v-22.505c20.581 3.618 42.386 3.709 63.43-.023v93.272h-63.43v-41.017c0-4.142-3.358-7.5-7.5-7.5zm127.553 48.517v-33.88h27.079c3.725 10.825 5.932 22.175 6.591 33.88zm20.791-48.879h-28.291c-4.142 0-7.5 3.358-7.5 7.5v41.379h-26.624v-96.612c5.38-1.438 10.7-3.128 15.899-5.05 8.127 5.387 31.587 22.79 46.516 52.783zm66.329-179.994c4.771-20.013 6.218-41.43 3.697-63.126 16.141 2.199 27.504 15.899 27.504 31.418 0 17.315-13.95 31.433-31.201 31.708zm-384.088-64.055c-7.161-29.197 5.273-60.229 32.11-76.192 2.245-1.335 3.633-3.767 3.665-6.378.462-37.805 30.953-68.317 68.778-68.778 2.714-.034 5.08-1.482 6.379-3.666 19.331-32.498 61.022-43.643 93.993-25.087 2.288 1.3 5.112 1.293 7.405.003 32.957-18.549 74.655-7.436 93.998 25.084 1.335 2.245 3.767 3.634 6.379 3.666 37.806.462 68.316 30.954 68.778 68.778.034 2.7 1.47 5.073 3.667 6.379 26.835 15.963 39.27 46.995 32.108 76.191-8.166-8.493-19.491-13.832-31.908-14.33-2.55-12.448-6.438-24.5-11.116-35.224-6.452-14.902-19.086-27.223-35.536-33.092-13.125-4.685-24.813-3.429-24.713-3.435-10.166.957-9.207 15.103.774 14.981.225-.014.45-.029.675-.044 18.704-1.093 36.271 9.259 44.286 25.911 14.751 30.648 18.826 74.472 8.004 112.526-26.267 92.247-127.326 145.121-219.812 108.675-85.566-33.704-128.654-132.297-91.307-219.142 7.764-18.066 26.082-29.081 45.228-27.97 27.174 1.59 53.577 9.143 75.539 25.413 18.672 13.833 44.383 13.431 62.513 0 7.246-5.369 15.182-9.919 23.727-13.637 20.306-8.837 26.139-5.934 28.481-12.42 1.703-4.714-1.608-9.68-6.511-10.026-1.391-.105-2.478.193-6.018 1.12-17.534 4.604-34.044 12.118-48.608 22.911-13.146 9.74-31.509 9.74-44.655 0-22.798-16.89-50.923-26.423-83.592-28.335-24.696-1.445-49.24 12.366-59.971 37.227-4.795 11.196-8.414 22.743-10.835 34.561-11.588.41-23.286 5.365-31.905 14.33z"/></g></g></svg>