<svg id="Capa_1" enable-background="new 0 0 512 512" height="512" viewBox="0 0 512 512" width="512" xmlns="http://www.w3.org/2000/svg"><g><g><path d="m338.607 396.932c23.895 17.131 55.389 50.528 55.389 107.568h-266.972c0-57.04 31.494-90.437 55.389-107.568z" fill="#ff889e"/><path d="m338.607 396.932-32.269 57.523c-9.29 16.557-26.844 26.844-45.827 26.844s-36.537-10.287-45.827-26.844l-32.269-57.523c14.615-10.478 26.401-14.877 26.401-14.877h103.391c-.001 0 11.785 4.399 26.4 14.877z" fill="#d8d8d8"/><path d="m208.814 371.99 36.594 65.234c6.615 11.792 23.589 11.792 30.204 0l36.594-65.234z" fill="#ffbd86"/><path d="m464.311 307.97c-7.356-12.665-15.87-32.891-15.189-57.921h-377.223c.681 25.031-7.834 45.256-15.189 57.921-5.497 9.465-2.554 21.6 6.685 27.468 19.164 12.172 54.693 28.575 106.992 28.575h180.246c52.299 0 87.828-16.403 106.992-28.575 9.24-5.868 12.183-18.004 6.686-27.468z" fill="#5c586f"/><circle cx="103.923" cy="73.964" fill="#d8d8d8" r="66.464"/><path d="m125.224 110.219c-37.967 0-68.745-30.778-68.745-68.744 0-5.459.656-10.762 1.858-15.854-12.846 12.119-20.878 29.288-20.878 48.343 0 36.707 29.757 66.464 66.464 66.464 28.805 0 53.323-18.328 62.547-43.956-11.489 8.63-25.769 13.747-41.246 13.747z" fill="#cacac8"/><path d="m54.972 221.866c0-113.334 92.204-205.539 205.539-205.539s205.539 92.204 205.539 205.539z" fill="#ff889e"/><g fill="#ffbd86"><circle cx="92.213" cy="241.996" r="45.734"/><circle cx="428.807" cy="241.996" r="45.734"/></g><path d="m92.691 209.234c6.452-87.045 79.124-155.66 167.819-155.66s161.367 68.615 167.819 155.66l-167.819 51.957z" fill="#5c586f"/><path d="m228.126 56.687c-73.43 14.313-129.789 76.373-135.435 152.547l36.443 11.283c3.473-67.832 41.143-130.29 98.992-163.83z" fill="#4f4c5f"/><path d="m428.802 221.866c0 92.943-75.349 168.292-168.292 168.292s-168.292-75.349-168.292-168.292c0-4.248.161-8.465.473-12.632.886-.131 48.495-17.171 96.315-87.075 0 0 69.239 87.075 239.323 87.075.312 4.167.473 8.384.473 12.632z" fill="#fed2a4"/><path d="m128.866 230.78c0-16.257 1.98-32.275 5.745-47.741-24.078 19.959-41.389 26.116-41.92 26.194-.312 4.167-.473 8.384-.473 12.632 0 75.966 50.34 140.167 119.477 161.092-50.277-34.608-82.829-89.887-82.829-152.177z" fill="#ffbd86"/><g fill="#ff9db0"><ellipse cx="163.001" cy="267.791" rx="35.979" ry="28.652"/><ellipse cx="358.02" cy="267.791" rx="35.979" ry="28.652"/></g></g><g><path d="m183.969 247.71c4.142 0 7.5-3.358 7.5-7.5v-14.708c0-4.142-3.358-7.5-7.5-7.5s-7.5 3.358-7.5 7.5v14.708c0 4.142 3.358 7.5 7.5 7.5z"/><path d="m337.051 247.71c4.142 0 7.5-3.358 7.5-7.5v-14.708c0-4.142-3.358-7.5-7.5-7.5s-7.5 3.358-7.5 7.5v14.708c0 4.142 3.358 7.5 7.5 7.5z"/><path d="m260.51 256.465c9.901 0 19.317-4.289 25.834-11.766 2.721-3.123 2.396-7.86-.727-10.582-3.123-2.721-7.86-2.397-10.582.727-3.667 4.208-8.961 6.621-14.525 6.621s-10.859-2.413-14.525-6.621c-2.722-3.123-7.459-3.448-10.582-.727s-3.448 7.459-.727 10.582c6.517 7.478 15.933 11.766 25.834 11.766z"/><path d="m65.11 136.934c-10.358 23.77-16.318 49.432-17.424 75.938-5.497 8.375-8.707 18.379-8.707 29.124 0 16.964 7.986 32.088 20.385 41.843-2.317 7.043-5.373 13.876-9.141 20.363-7.554 13.009-3.535 29.51 9.15 37.566 21.085 13.392 57.024 29.31 108.964 29.724 6.978 4.314 14.278 8.151 21.856 11.472-3.683 2.146-7.804 4.755-12.151 7.872h-.001c-26.696 19.14-58.518 54.396-58.518 113.663 0 4.142 3.358 7.5 7.5 7.5h266.973c4.142 0 7.5-3.358 7.5-7.5 0-59.268-31.823-94.523-58.52-113.663-4.347-3.117-8.468-5.727-12.151-7.872 7.578-3.32 14.879-7.157 21.856-11.472 51.935-.412 87.878-16.332 108.964-29.724 12.686-8.057 16.705-24.558 9.149-37.566-3.768-6.488-6.823-13.32-9.14-20.363 21.802-17.153 26.797-47.937 11.675-70.972-2.443-58.066-28.971-113.224-73.038-151.626-3.122-2.721-7.86-2.396-10.582.727-2.721 3.123-2.396 7.86.727 10.582 36.731 32.009 60.368 76.526 66.504 124.285-6.905-4.317-14.924-7.143-23.73-7.888-6.56-34.656-23.388-66.697-49.464-92.435-68.668-67.502-179.745-67.686-248.394 1.915-2.909 2.949-2.876 7.698.073 10.606.001.001.002.002.003.003.001 0 .001.001.002.002 2.95 2.909 7.698 2.875 10.606-.074 63.533-64.42 167.807-63.674 230.212 1.296 23.776 24.665 39.392 56.547 43.775 91.397-58.841-1.037-119.755-13.522-170.686-42.063-37.153-20.812-54.305-41.907-54.465-42.106-3.092-3.888-9.19-3.763-12.061.433-21.01 30.719-48.423 60.464-81.128 78.825 3.586-22.873 12.307-45.591 26.231-65.846 2.346-3.414 1.481-8.082-1.934-10.43-3.142-2.16-7.816-1.885-10.698 2.337-12.939 18.931-22.076 40.076-26.825 62.89-.179.852-.494 2.389-.656 3.248-.689.058-2.42.252-3.199.368-7.461 1.072-14.423 3.698-20.555 7.537 12.213-96.777 95.232-173.023 196.463-173.023 38.021 0 74.99 10.866 106.908 31.423 3.482 2.243 8.124 1.238 10.367-2.245 2.243-3.482 1.238-8.124-2.245-10.367-34.346-22.12-74.123-33.812-115.03-33.812-33.799 0-66.499 7.911-95.936 22.821-13.754-19.685-36.377-31.647-60.651-31.647-40.784 0-73.964 33.18-73.964 73.964 0 26.05 13.3 49.56 35.151 62.97zm2.321 75.978c5.177-4.403 11.453-7.371 18.157-8.56-2.519 25.26.432 51.354 9.032 75.793-36.879 2.338-54.887-43.666-27.189-67.233zm122.35-78.824c56.62 57.016 150.764 81.433 231.432 82.595 2.453 75.935-48.49 141.845-119.637 160.653-27.201 7.159-55.433 7.033-82.13 0-71.134-18.804-123.07-85.232-119.552-162.856 33.501-14.466 68.886-51.032 89.887-80.392zm110.016 316.698c-17.187 30.631-61.378 30.644-78.573 0l-28.906-51.527c7.491-4.841 13.696-7.827 16.862-9.228.46.14.922.271 1.384.408l28.303 50.454c7.539 13.441 21.743 12.703 21.643 12.675 9.1 0 17.191-4.739 21.643-12.675l28.303-50.455c.461-.137.924-.268 1.384-.408 3.167 1.401 9.372 4.387 16.862 9.228zm-9.139-55.714-21.587 38.482c-3.751 6.687-13.369 6.69-17.122 0l-21.587-38.482c19.62 3.387 39.795 3.512 60.296 0zm-223.242-65.965c-5.862-3.723-7.716-11.353-4.221-17.37 3.763-6.478 6.914-13.258 9.415-20.245 9.07 3.597 18.902 4.507 27.822 3.098 10.648 23.449 26.13 44.029 45.541 60.659-36.383-3.853-62.3-15.817-78.557-26.142zm318.886 167.893h-37.374v-31.823c0-4.142-3.358-7.5-7.5-7.5s-7.5 3.358-7.5 7.5v31.823h-146.836v-31.823c0-4.142-3.358-7.5-7.5-7.5s-7.5 3.358-7.5 7.5v31.823h-37.374c2.29-43.71 24.4-71.846 45.377-88.87l28.047 49.996c22.91 40.828 81.82 40.843 104.736 0l28.046-49.995c20.978 17.023 43.088 45.159 45.378 88.869zm62.108-205.508c2.5 6.986 5.652 13.766 9.415 20.244 3.495 6.018 1.641 13.648-4.221 17.371-16.256 10.325-42.171 22.287-78.556 26.141 19.41-16.63 34.892-37.209 45.54-60.658 9.293 1.455 18.995.401 27.822-3.098zm-22.01-11.346c6.976-19.825 9.759-38.733 9.903-58.28 0-9.489-.807-16.732-.87-17.514 18.194 3.228 31.609 19.063 31.609 37.645-.001 21.87-18.48 39.553-40.642 38.149zm-322.477-265.146c18.815 0 36.388 9.019 47.429 23.95-14.012 8.404-27.155 18.471-39.151 30.12-16.54 16.061-30.155 34.374-40.567 54.249-16.621-10.819-26.675-29.129-26.675-49.355 0-32.513 26.451-58.964 58.964-58.964z"/></g></g></svg>