<svg id="Layer_1" enable-background="new 0 0 512 512" height="512" viewBox="0 0 512 512" width="512" xmlns="http://www.w3.org/2000/svg"><g><path d="m256.001 422.577-31.181 30.175 31.181 30.046 31.179-30.048z" fill="#efedff"/><g><path d="m62.758 329.485c-1.873 3.537-2.917 7.291-3.21 11.042-5.87-.779-12.016.289-17.521 3.467-8.331 4.81-14.75 15.329-19.297 26.095-2.328 5.511-1.935 11.795 1.066 16.971l.002.004c3.001 5.177 8.261 8.641 14.202 9.358 11.641 1.406 24.069 1.097 32.215-3.606 8.44-4.873 13.234-13.174 13.888-21.964 11.554 1.526 23.122-4.164 28.773-14.838 8.267-15.616 13.876-32.204 16.789-49.192l-55.149-14.777c-1.565 12.946-5.5 25.618-11.758 37.44z" fill="#4c5699"/><path d="m489.243 369.428c-4.603-10.784-11.084-21.392-19.23-26.095-6.651-3.84-14.014-4.651-20.722-2.952.034-4.543-1.023-9.159-3.297-13.456-5.845-11.041-9.663-22.825-11.417-34.879l-55.036 14.747c3.024 16.105 8.479 31.822 16.335 46.662 6.243 11.792 19.619 17.383 32.057 14.204-.099 9.78 4.883 19.294 13.894 24.496 8.331 4.81 20.65 5.11 32.246 3.665 5.937-.74 11.183-4.222 14.165-9.408l.003-.005c2.981-5.188 3.351-11.475 1.002-16.979z" fill="#676fb2"/></g><g><path d="m287.18 452.75c-1.487.238-2.975.469-4.465.672-4.255.58-8.091 2.86-10.559 6.375l-16.155 23.001-16.153-22.998c-2.472-3.52-6.317-5.8-10.58-6.38-1.489-.203-2.971-.43-4.449-.668l-35.21 34.074 15.374 17.674h51.017 84.654z" fill="#7ce3ff"/><path d="m171.347 504.5h33.637v-12.911c0-1.598.059-3.185.146-4.762h-15.52z" fill="#2ed0fc"/></g><g><path d="m272.794 407.885h-29.685l-37.979 37.979v40.962c22.577-15.917 40.359-38.13 50.871-64.249 15.324 38.077 46.095 67.855 84.654 81.923v-12.911c-.001-41.177-29.123-75.811-67.861-83.704z" fill="#ff8e9e"/><path d="m272.794 407.885c-5.428-1.106-11.042-1.693-16.794-1.693-46.699 0-84.653 38.351-84.653 85.396v12.912c12.108-4.418 23.448-10.387 33.783-17.674 2.148-39.092 30.539-71.349 67.664-78.941z" fill="#ea5b70"/></g><g><path d="m414.385 165.882c-.001-72.446-48.581-133.319-114.691-152.27h-75.682l-39.012 39.012v113.258z" fill="#e8b5b1"/><path d="m299.693 13.616c-13.888-3.981-28.546-6.116-43.692-6.116-87.26 0-158.383 70.73-158.385 158.382h87.385c.001-72.437 48.577-133.313 114.692-152.266z" fill="#ce857a"/></g><g><path d="m472.047 164.275c-31.707-37.666-113.951-75.021-216.047-73.726l-42.517 20.134v153.511h239.133c37.31-22.483 53.639-61.356 19.431-99.919z" fill="#d6948c"/><path d="m237.53 128.215c0-14.736 6.82-28.643 18.47-37.667-102.096-1.296-184.34 36.061-216.047 73.726-34.207 38.564-17.878 77.437 19.432 99.918h196.615l-.029-98.302c-11.651-9.023-18.441-22.939-18.441-37.675z" fill="#bd7669"/></g><g><path d="m414.385 225.962h-316.769c-21.114 0-38.231 17.116-38.231 38.231s17.117 38.231 38.231 38.231h316.769c21.114 0 38.231-17.116 38.231-38.231s-17.117-38.231-38.231-38.231z" fill="#ffbd86"/><path d="m409.73 225.953-153.76-60.062-107.642 42.064v121.731l90.692 90.692h43.357c74.917-12.56 132.008-77.701 132.008-156.186 0-13.186-1.618-25.992-4.655-38.239z" fill="#fed2a4"/><path d="m150.155 264.413c0-22.05 4.521-43.037 12.651-62.116l-60.535 23.656c-3.037 12.247-4.655 25.053-4.655 38.24 0 78.486 57.092 143.626 132.009 156.186 8.579 1.438 17.388 2.199 26.376 2.199s17.797-.76 26.377-2.199c-75.028-12.525-132.223-77.344-132.223-155.966z" fill="#ffbd86"/></g><g><path d="m255.97 165.891-58.408 13.287v39.537l8.332 27.607c1.277 4.23 4.976 7.275 9.372 7.721 7.841.796 15.708 1.371 23.594 1.704 9.336.395 17.14-7.024 17.14-16.369v-13.426h13.438c4.423 0 8.301-2.953 9.477-7.217l6.033-21.867 6.109 21.895c1.186 4.25 5.057 7.189 9.469 7.189h26.515c4.414 0 8.287-2.943 9.471-7.195l3.051-10.965 3.094 10.993c1.193 4.239 5.059 7.167 9.463 7.167h57.611c-43.47-40.096-98.633-60.077-153.761-60.061z" fill="#676fb2"/><path d="m102.271 225.953c7.908 3.23 15.908 6.2 23.986 8.914 5.863 1.969 12.197-1.266 13.984-7.186l2.706-8.965 4.375 14.495c1.671 5.535 6.129 9.802 11.745 11.178 6.385 1.564 12.806 2.973 19.258 4.227 5.487 1.066 10.887-2.229 12.502-7.581l6.736-22.319c7.437-24.643 26.892-43.814 51.641-50.89l6.768-1.935c-55.193.015-110.349 20.074-153.701 60.062z" fill="#4c5699"/></g><g fill="#ff8e9e"><ellipse cx="176.001" cy="317.5" rx="29" ry="23"/><ellipse cx="336" cy="317.5" rx="29" ry="23"/></g><g><path d="m193.552 276c-4.142 0-7.5 3.358-7.5 7.5v12c0 4.142 3.358 7.5 7.5 7.5s7.5-3.358 7.5-7.5v-12c0-4.142-3.358-7.5-7.5-7.5z"/><path d="m318.449 276c-4.142 0-7.5 3.358-7.5 7.5v12c0 4.142 3.358 7.5 7.5 7.5s7.5-3.358 7.5-7.5v-12c0-4.142-3.358-7.5-7.5-7.5z"/><path d="m277.393 288.986c-3.122-2.722-7.86-2.397-10.582.726-5.728 6.571-15.899 6.564-21.621 0-2.721-3.123-7.46-3.448-10.582-.726-3.123 2.722-3.448 7.459-.726 10.582 11.705 13.43 32.543 13.416 44.236 0 2.722-3.123 2.397-7.86-.725-10.582z"/><path d="m496.14 366.483c-8.013-18.773-19.88-34.656-40.292-34.445-.7-2.99-1.783-5.895-3.227-8.623-4.037-7.627-7.051-15.698-9.01-24.045 9.68-7.937 15.402-18.983 16.372-30.955 24.386-15.87 38.289-37.868 38.289-60.867 0-25.402-16.564-47.1-35.915-63.25-3.179-2.653-7.909-2.229-10.563.952-2.654 3.18-2.229 7.91.952 10.564 15.681 13.09 30.526 31.397 30.526 51.735 0 15.824-9.02 31.367-25.097 43.787-.019-.065-.035-.13-.054-.195-5.597-18.788-21.386-32.679-45.502-32.679-43.081-38.754-98.557-60.071-156.584-60.071-.021 0-.045 0-.067 0-58.043.016-113.525 21.335-156.586 60.071-23.362 0-38.897 13.301-44.924 30.875-.228.664-.436 1.33-.633 1.997-16.077-12.419-25.097-27.963-25.097-43.786 0-52.575 101.254-111.094 227.178-109.5.063.001.125.001.188 0 59.871-.74 123.114 11.771 173.06 41.312 3.566 2.108 8.167.928 10.273-2.638 2.109-3.565.928-8.165-2.637-10.273-6.112-3.615-13.817-7.777-23.066-12.061-21.69-66.345-84.054-114.388-157.723-114.388-74.754 0-136.381 49.09-157.725 114.392-38.631 17.917-84.548 50.482-84.548 93.157 0 23.012 13.92 45.023 38.333 60.896.937 10.86 5.795 21.081 14.035 28.868-1.848 10.015-5.189 19.641-9.966 28.664-1.173 2.215-2.102 4.517-2.783 6.889-19.106 1.34-30.108 16.745-37.525 34.307-6.872 16.271 3.765 34.582 21.28 36.697 12.004 1.451 26.432 1.466 36.864-4.557 8.042-4.643 13.843-12.138 16.344-20.809 11.713-.839 23.121-7.402 29.524-19.617 19.499 27.954 46.587 49.012 77.992 60.737-4.291 3.53-8.273 7.444-11.905 11.729-2.678 3.16-2.287 7.893.873 10.571s7.893 2.286 10.571-.873c5.308-6.263 11.495-11.588 18.414-15.873 9.37 2.322 18.999 3.836 28.804 4.499-13.976 28.04-37.292 50.595-65.736 63.639 0-9.889 1.079-18.658 4.795-28.751 1.431-3.887-.56-8.198-4.447-9.629-3.89-1.433-8.199.56-9.629 4.447-3.794 10.306-5.719 21.142-5.719 32.207v12.91c0 4.147 3.365 7.499 7.5 7.5h169.308v-.004c4.182-.001 7.5-3.389 7.5-7.496v-12.911c0-28.089-12.722-54.465-33.99-71.966 31.836-11.887 58.168-32.902 77.046-59.417 6.808 10.139 18.187 16.022 30.153 15.844 2.201 9.422 8.181 17.675 16.711 22.6 10.541 6.086 24.841 6.117 36.924 4.612 17.533-2.184 28.066-20.555 21.141-36.779zm-240.139-351.483c60.291 0 115.123 36.839 138.659 91.358-43.905-16.789-91.466-23.883-138.66-23.31-51.123-.635-98.742 8.142-138.677 23.352 23.525-54.542 78.37-91.4 138.678-91.4zm187.745 240.423c5.677 19.06-7.221 36.499-24.559 39.102 3.69-19.833 3.725-40.379-.087-60.747 13.879 1.896 21.792 12.065 24.646 21.645zm-187.774-82.032h.063c48.454 0 95.028 15.878 133.14 45.063h-37.055c-1.04 0-1.963-.699-2.244-1.7l-3.094-10.993c-2.051-7.287-12.409-7.292-14.445.021l-3.052 10.965c-.279 1.005-1.203 1.707-2.245 1.707h-26.515c-1.042 0-1.965-.701-2.245-1.705l-6.109-21.895c-2.044-7.325-12.435-7.297-14.454.021l-6.033 21.867c-.278 1.008-1.202 1.711-2.247 1.711h-5.937v-10.5c0-4.142-3.358-7.5-7.5-7.5s-7.5 3.358-7.5 7.5v31.426c0 5.027-4.178 9.082-9.323 8.876-7.581-.321-15.371-.884-23.154-1.673-1.389-.141-2.546-1.093-2.948-2.426l-8.332-27.607c-2.139-7.088-12.222-7.086-14.36 0l-6.736 22.318c-.51 1.691-2.185 2.717-3.892 2.385-6.307-1.225-12.667-2.621-18.904-4.149-3.01-.737-5.443-3.059-6.349-6.06l-4.375-14.495c-2.139-7.088-12.222-7.086-14.36 0l-2.706 8.965c-.56 1.854-2.553 2.871-4.416 2.243-4.053-1.361-8.103-2.795-12.121-4.292 39.21-32.363 88.267-50.059 139.448-50.073zm-187.326 80.813c3.088-9.005 11.001-18.559 24.253-20.414-3.809 20.357-3.776 40.893-.093 60.716-17.814-2.678-30.826-20.866-24.16-40.302zm-29.747 134.773c-7.65-.924-12.241-8.911-9.26-15.969 5.354-12.677 12.872-25.17 26.144-25.211l20.443 25.248c-3.501 16.516-20.772 17.93-37.327 15.932zm67.349-36.471c-3.618 6.833-10.775 11.046-18.381 11.077l-20.418-25.217c.4-1.86 1.033-3.662 1.938-5.371 4.503-8.505 7.883-17.479 10.131-26.779 6.412 2.77 12.329 3.503 16.936 3.673 3.376 11.732 8.068 23.115 14.039 33.957-1.338 2.949-2.758 5.851-4.245 8.66zm97.104 144.494c12.441-7.923 23.672-17.607 33.323-28.713 2.74 3.888 6.583 9.418 13.188 18.822 2.986 4.253 9.294 4.244 12.275 0 6.685-9.519 10.406-14.873 13.19-18.82 9.651 11.105 20.88 20.789 33.321 28.711zm42.957-41.022c3.533-5.022 6.777-10.263 9.691-15.708 2.915 5.446 6.159 10.688 9.693 15.71-1.545 2.105-3.757 5.268-7.29 10.318-.737 1.054-1.536 2.196-2.403 3.435-.921-1.317-1.766-2.524-2.541-3.633-3.452-4.938-5.624-8.045-7.15-10.122zm86.846 37.338c-28.447-13.045-51.765-35.603-65.738-63.64 9.804-.663 19.433-2.177 28.802-4.5 22.077 13.682 36.936 37.846 36.936 68.14zm-77.154-78.239c-94.986 0-165.802-86.538-148.285-178.918 5.339 2.045 10.741 3.999 16.153 5.816 6.302 2.116 12.841.67 17.592-3.196 3.062 6.386 8.868 11.19 15.821 12.893 6.471 1.585 13.069 3.034 19.612 4.304 8.81 1.71 17.433-3.14 20.639-11.4.873 2.893 3.366 15.548 16.976 16.929 8.075.819 16.161 1.403 24.034 1.736 13.561.585 24.957-10.196 24.957-23.862v-5.926h5.938c6.665 0 12.667-3.849 15.544-9.671 2.878 5.821 8.885 9.671 15.543 9.671h26.515c4.844 0 9.341-2.036 12.541-5.386 3.201 3.349 7.7 5.386 12.539 5.386h51.616c19.465 93.476-51.936 181.624-147.735 181.624zm167.749-54.243c-8.602 1.197-17.097-3.053-21.246-10.887-.715-1.35-1.415-2.732-2.102-4.13 6.497-11.427 11.556-23.478 15.138-35.92 4.056-.139 9.055-.705 14.586-2.74 2.224 8.047 5.306 15.847 9.238 23.275 1.259 2.379 2.028 4.899 2.306 7.515zm49.394 27.544c-12.123 1.51-21.917.546-27.569-2.718-5.653-3.264-9.348-9.089-10.024-15.567l17.908-22.87c14.661-1.904 22.997 11.353 28.885 25.148 3.012 7.056-1.562 15.055-9.2 16.007z"/></g></g></svg>