<svg id="Capa_1" enable-background="new 0 0 512 512" height="512" viewBox="0 0 512 512" width="512" xmlns="http://www.w3.org/2000/svg"><g><g><path d="m504.517 256c0-18.491-9.283-34.809-23.443-44.555-9.482-6.527-12.825-19.001-7.876-29.396 7.389-15.521 7.269-34.294-1.976-50.308-9.245-16.013-25.444-25.504-42.58-26.865-11.476-.912-20.607-10.043-21.519-21.519-1.361-17.136-10.852-33.334-26.865-42.58-16.013-9.245-34.787-9.365-50.308-1.976-10.394 4.948-22.868 1.606-29.395-7.876-9.746-14.159-26.064-23.442-44.555-23.442s-34.809 9.283-44.556 23.443c-6.527 9.482-19.001 12.825-29.395 7.876-15.521-7.389-34.294-7.269-50.308 1.976-16.013 9.245-25.504 25.444-26.865 42.58-.912 11.476-10.043 20.607-21.519 21.519-17.136 1.361-33.334 10.852-42.58 26.865-9.245 16.013-9.365 34.787-1.976 50.308 4.948 10.394 1.606 22.868-7.876 29.396-14.159 9.745-23.442 26.063-23.442 44.554s9.283 34.809 23.443 44.556c9.482 6.527 12.825 19.001 7.876 29.395-7.389 15.521-7.269 34.294 1.976 50.308 9.245 16.013 25.444 25.504 42.58 26.865 11.476.912 20.607 10.043 21.519 21.519 1.361 17.136 10.852 33.334 26.865 42.58 16.013 9.245 34.787 9.365 50.308 1.976 10.394-4.948 22.868-1.606 29.395 7.877 9.747 14.159 26.065 23.443 44.556 23.443s34.809-9.283 44.556-23.443c6.527-9.482 19.001-12.825 29.396-7.877 15.521 7.389 34.294 7.269 50.308-1.976 16.013-9.245 25.504-25.444 26.865-42.58.912-11.476 10.043-20.607 21.519-21.519 17.136-1.361 33.334-10.852 42.58-26.865s9.365-34.787 1.976-50.308c-4.948-10.394-1.606-22.868 7.876-29.395 14.157-9.747 23.44-26.065 23.44-44.556z" fill="#fe646f"/></g><g><path d="m481.072 211.443c-9.478-6.525-12.82-18.995-7.871-29.391 7.383-15.523 7.263-34.299-1.975-50.312-8.45-14.626-22.697-23.814-38.16-26.328 7.303 4.539 13.618 10.894 18.207 18.845 3.092 5.357 5.243 11.249 6.354 17.333 2.127 11.654-.194 22.899-4.714 33.736-.988 2.369-1.687 4.803-2.272 7.298-2.881 12.273 3.223 26.353 12.397 34.815 4.614 4.256 9.508 8.271 13.569 13.084 6.526 7.734 8.827 16.426 7.319 26.508-2.159 14.436-10.837 27.803-22.805 36.042-9.478 6.525-12.82 19.005-7.871 29.401 7.383 15.514 7.263 34.29-1.975 50.302-12.217 21.175-39.877 12.439-54.991 27.961-5.319 5.462-8.508 12.849-9.108 20.427-.747 9.434-4.03 18.675-9.38 26.452-3.106 4.513-7.586 7.868-12.617 9.966-10.77 4.493-23.112.934-33.977-1.236-12.623-2.521-25.149-2.354-36.515 4.277-5.553 3.24-10.432 7.663-14.08 12.966-9.747 14.167-26.069 23.445-44.555 23.445-2.943 0-5.826-.239-8.64-.688 8.3 5.178 18.098 8.171 28.593 8.171 18.487 0 34.808-9.278 44.555-23.445 6.525-9.478 19.005-12.82 29.391-7.872 15.524 7.393 34.3 7.273 50.312-1.975s25.5-25.44 26.867-42.58c.908-11.473 10.036-20.612 21.52-21.52 17.13-1.357 33.332-10.854 42.58-26.867 9.238-16.012 9.358-34.789 1.975-50.302-4.948-10.396-1.606-22.876 7.871-29.401 14.167-9.747 23.445-26.059 23.445-44.556-.004-18.487-9.282-34.809-23.449-44.556z" fill="#fd4755"/></g><g><circle cx="256" cy="255.769" fill="#faf7f7" r="172.753"/></g><g><path d="m428.755 255.769c0 95.406-77.348 172.755-172.755 172.755-30.678 0-59.47-7.991-84.442-22.008 19.853 7.961 41.543 12.341 64.239 12.341 95.406 0 172.755-77.339 172.755-172.745 0-64.768-35.636-121.206-88.373-150.776 63.631 25.47 108.576 87.704 108.576 160.433z" fill="#ede1dd"/></g><g><path d="m297.296 255.769 43.22-43.22c11.405-11.404 11.405-29.892 0-41.296-11.403-11.405-29.893-11.405-41.296 0l-43.22 43.221-43.22-43.22c-11.403-11.405-29.893-11.405-41.296 0-11.405 11.404-11.405 29.892 0 41.296l43.22 43.22-43.22 43.22c-11.405 11.404-11.405 29.892 0 41.296 5.701 5.702 13.175 8.553 20.648 8.553s14.946-2.851 20.648-8.553l43.22-43.22 43.22 43.22c5.701 5.702 13.175 8.553 20.648 8.553s14.946-2.851 20.648-8.553c11.405-11.404 11.405-29.892 0-41.296z" fill="#8d9ca8"/></g><g><path d="m340.512 298.988c11.413 11.403 11.413 29.89 0 41.293-5.697 5.707-13.169 8.56-20.642 8.56-4.509 0-9.019-1.038-13.129-3.123 2.653-1.326 5.135-3.092 7.36-5.286 11.52-11.358 11.169-30.427-.271-41.867l-30.988-30.988c-6.521-6.521-6.521-17.095 0-23.616l30.988-30.988c11.44-11.44 11.791-30.509.27-41.867-2.226-2.194-4.707-3.959-7.36-5.286 10.944-5.527 24.632-3.711 33.771 5.437 11.413 11.403 11.413 29.89 0 41.293l-43.219 43.219z" fill="#7a8c98"/></g><g><path d="m485.317 306.719c16.708-11.5 26.683-30.461 26.683-50.719s-9.975-39.219-26.682-50.719c-6.499-4.474-8.755-12.892-5.363-20.016 8.719-18.313 7.877-39.721-2.252-57.265-10.13-17.543-28.248-28.976-48.467-30.583-7.865-.625-14.028-6.787-14.652-14.653-1.609-20.22-13.042-38.338-30.584-48.467-17.545-10.13-38.954-10.97-57.264-2.252-7.124 3.392-15.543 1.137-20.016-5.363-11.501-16.707-30.463-26.682-50.72-26.682-20.258 0-39.218 9.975-50.719 26.682-4.473 6.499-12.891 8.754-20.016 5.363-18.313-8.717-39.72-7.876-57.265 2.252-17.544 10.129-28.976 28.248-30.583 48.467-.625 7.866-6.787 14.028-14.653 14.653-20.22 1.607-38.338 13.04-48.466 30.583-2.091 3.621-3.815 7.452-5.124 11.387-1.305 3.921.817 8.157 4.738 9.462 3.919 1.302 8.158-.817 9.462-4.738.991-2.978 2.298-5.881 3.884-8.629 7.666-13.278 21.382-21.931 36.692-23.147 15.237-1.21 27.175-13.148 28.386-28.386 1.216-15.309 9.869-29.026 23.147-36.692s29.484-8.301 43.35-1.7c13.798 6.57 30.108 2.2 38.775-10.39 8.708-12.65 23.061-20.203 38.392-20.203 15.332 0 29.684 7.553 38.392 20.203 8.667 12.589 24.973 16.96 38.775 10.39 13.867-6.602 30.072-5.965 43.349 1.7 13.277 7.666 21.931 21.382 23.148 36.692 1.21 15.237 13.148 27.176 28.386 28.386 15.309 1.216 29.026 9.87 36.692 23.147 7.666 13.278 8.301 29.484 1.7 43.35-6.571 13.801-2.201 30.109 10.39 38.775 12.65 8.707 20.203 23.06 20.203 38.392s-7.553 29.685-20.204 38.392c-12.59 8.666-16.959 24.974-10.389 38.775 6.601 13.866 5.965 30.072-1.7 43.35-7.667 13.278-21.383 21.931-36.692 23.147-15.239 1.211-27.176 13.149-28.386 28.386-1.217 15.31-9.87 29.027-23.148 36.692-13.276 7.666-29.482 8.302-43.349 1.701-13.8-6.572-30.107-2.2-38.775 10.39-8.708 12.65-23.06 20.203-38.392 20.203s-29.684-7.553-38.392-20.203c-8.667-12.592-24.976-16.96-38.775-10.39-13.867 6.602-30.073 5.966-43.35-1.7-13.278-7.666-21.931-21.382-23.147-36.692-1.211-15.237-13.149-27.175-28.386-28.386-15.309-1.216-29.026-9.869-36.692-23.147s-8.302-29.484-1.7-43.35c6.57-13.801 2.201-30.108-10.39-38.775-12.651-8.708-20.203-23.06-20.203-38.392s7.553-29.684 20.203-38.392c12.591-8.667 16.96-24.974 10.39-38.775-.792-1.663-1.493-3.392-2.083-5.14-1.323-3.915-5.568-6.014-9.484-4.694-3.915 1.323-6.016 5.569-4.694 9.484.779 2.306 1.704 4.587 2.748 6.782 3.392 7.124 1.137 15.542-5.362 20.016-16.708 11.501-26.683 30.461-26.683 50.719s9.975 39.218 26.683 50.719c6.499 4.474 8.754 12.892 5.362 20.016-8.718 18.313-7.877 39.721 2.253 57.265 10.129 17.544 28.247 28.976 48.466 30.583 7.866.625 14.028 6.787 14.653 14.653 1.606 20.22 13.039 38.338 30.583 48.467 17.543 10.13 38.951 10.971 57.266 2.252 7.124-3.39 15.542-1.136 20.016 5.363 11.5 16.707 30.46 26.682 50.718 26.682 20.257 0 39.219-9.975 50.719-26.682 4.475-6.499 12.895-8.754 20.016-5.363 18.313 8.718 39.72 7.876 57.264-2.252 17.543-10.128 28.976-28.246 30.583-48.468.625-7.865 6.787-14.027 14.652-14.652 20.219-1.606 38.338-13.039 48.467-30.583s10.97-38.952 2.252-57.265c-3.39-7.124-1.135-15.542 5.364-20.016z"/><path d="m409.571 335.317c3.75 1.741 8.198.117 9.941-3.63 11.097-23.862 16.723-49.404 16.723-75.919 0-99.382-80.853-180.235-180.235-180.235s-180.235 80.854-180.235 180.236 80.853 180.235 180.235 180.235c28.985 0 56.665-6.672 82.272-19.832 24.422-12.551 46.013-30.859 62.439-52.946 2.467-3.315 1.778-8.003-1.538-10.469s-8.002-1.777-10.469 1.539c-15.069 20.262-34.873 37.056-57.271 48.566-23.471 12.062-48.85 18.178-75.432 18.178-91.13 0-165.27-74.14-165.27-165.271 0-91.13 74.14-165.27 165.27-165.27 91.131 0 165.271 74.14 165.271 165.27 0 24.318-5.157 47.738-15.328 69.608-1.744 3.747-.12 8.197 3.627 9.94z"/><path d="m356.551 191.901c0-9.798-3.815-19.01-10.744-25.938-14.137-14.142-37.739-14.139-51.877 0-.056.056-37.93 37.93-37.93 37.93l-37.929-37.929c-14.075-14.078-37.774-14.103-51.878 0-6.929 6.929-10.745 16.14-10.745 25.939 0 9.798 3.816 19.01 10.745 25.939l37.93 37.929-37.93 37.929c-6.929 6.929-10.745 16.14-10.745 25.939 0 9.798 3.816 19.01 10.744 25.938 6.928 6.929 16.14 10.745 25.939 10.745s19.011-3.816 25.939-10.745l37.93-37.93 37.929 37.929c6.927 6.93 16.14 10.746 25.939 10.746s19.011-3.816 25.938-10.744c6.93-6.929 10.745-16.14 10.745-25.939s-3.815-19.011-10.744-25.939l-37.93-37.93 37.929-37.929c6.93-6.93 10.745-16.141 10.745-25.94zm-21.327 15.357-43.22 43.22c-2.922 2.922-2.922 7.66 0 10.582l43.221 43.221c4.103 4.102 6.361 9.556 6.361 15.357 0 5.8-2.258 11.254-6.362 15.357-4.102 4.102-9.555 6.361-15.357 6.361s-11.255-2.259-15.356-6.362l-43.221-43.22c-1.461-1.461-3.376-2.192-5.291-2.192s-3.83.731-5.291 2.192l-43.221 43.221c-4.101 4.102-9.555 6.361-15.357 6.361s-11.255-2.259-15.357-6.362c-4.103-4.102-6.362-9.555-6.362-15.356s2.259-11.255 6.362-15.357l43.22-43.22c2.922-2.922 2.922-7.66 0-10.582l-43.22-43.22c-4.102-4.102-6.362-9.556-6.362-15.357s2.259-11.255 6.362-15.357c8.362-8.362 22.371-8.344 30.714 0l43.22 43.22c2.921 2.923 7.658 2.922 10.582 0l43.221-43.221c4.102-4.102 9.555-6.361 15.357-6.361 5.801 0 11.254 2.259 15.357 6.362 4.103 4.102 6.361 9.556 6.361 15.357s-2.257 11.254-6.361 15.356z"/></g></g></svg>