<svg id="Capa_1" enable-background="new 0 0 512 512" height="512" viewBox="0 0 512 512" width="512" xmlns="http://www.w3.org/2000/svg"><g><g><path d="m464.408 304.671c3.94 16.9-5.4 34.14-21.75 39.96-13.71 4.89-32.38 8.93-56.62 8.93h-74.01v-118.51h154.63c-7.44 30.06-6.09 53.17-2.25 69.62z" fill="#5c586f"/><path d="m312.028 235.051v118.51h-186.06c-24.25 0-42.92-4.04-56.63-8.93-16.34-5.82-25.69-23.06-21.74-39.96 3.84-16.45 5.19-39.56-2.26-69.62z" fill="#4f4c5f"/><path d="m109.6 504.5c0-66.694 45.197-103.513 45.197-103.513h202.406s45.197 36.819 45.197 103.513z" fill="#7292df"/><g><g><path d="m104.126 69.555c-8.217 0-14.879-6.662-14.879-14.879 0-8.496-6.912-15.408-15.408-15.408-8.217 0-14.879-6.662-14.879-14.879s6.661-14.878 14.879-14.878c24.905 0 45.166 20.261 45.166 45.165-.001 8.218-6.662 14.879-14.879 14.879z" fill="#fc5c70"/></g></g><path d="m466.658 235.048c0-116.157-94.501-210.658-210.658-210.658s-210.658 94.501-210.658 210.658z" fill="#5c586f"/><path d="m157.383 498.637c0-38.029 15.232-72.496 39.919-97.65h-42.505s-45.197 36.819-45.197 103.512h47.914c-.08-1.944-.131-3.897-.131-5.862z" fill="#5c84d9"/><path d="m370.267 358.822s1.873 85.965-114.266 85.965-114.266-85.965-114.266-85.965z" fill="#fc5c70"/><path d="m268.787 430.699c-6.826-16.552-22.427-26.616-38.343-26.324-11.494 11.013-15.465 29.149-8.638 45.701 5.673 13.755 17.405 23.029 30.342 25.604 5.065 1.008 10.287-1.146 13.169-5.431 7.36-10.947 9.143-25.795 3.47-39.55z" fill="#ff6f7f"/><path d="m191.233 399.021c-13.755 5.673-23.029 17.405-25.604 30.342-1.008 5.065 1.146 10.287 5.431 13.169 10.946 7.361 25.794 9.144 39.549 3.471 16.552-6.827 26.616-22.427 26.324-38.343-11.012-11.495-29.148-15.466-45.7-8.639z" fill="#ff8997"/><path d="m189.798 60.278-18.209-18.209c-74.252 32.602-126.247 106.825-126.247 192.979h80.322c-.215-4.138-.328-8.303-.328-12.494 0-62.826 24.499-119.924 64.462-162.276z" fill="#4f4c5f"/><g><g><path d="m68.385 144.005c-17.772-10.304-23.827-33.064-13.524-50.837 25.336-43.701 68.099-74.639 117.324-84.881 20.118-4.182 39.811 8.728 43.995 28.84 4.185 20.113-8.727 39.81-28.84 43.995-28.547 5.939-53.375 23.931-68.118 49.36-10.354 17.857-33.144 23.779-50.837 13.523z" fill="#ff6f7f"/></g></g><circle cx="431.941" cy="235.048" fill="#ffcabd" r="42.553"/><path d="m431.937 235.05c0 97.169-78.768 175.937-175.937 175.937s-175.937-78.768-175.937-175.937c0-14.561 1.766-28.706 5.108-42.236 132.243-40.48 170.829-102.445 170.829-102.445s38.586 61.965 170.829 102.446c3.342 13.529 5.108 27.674 5.108 42.235z" fill="#ffdcce"/><path d="m211.815 405.39c-52.798-43.377-86.479-109.172-86.479-182.837 0-15.551 1.517-30.746 4.382-45.459-13.507 5.459-28.314 10.75-44.538 15.718-1.68-.202-3.386-.318-5.121-.318-23.502 0-42.553 19.052-42.553 42.553 0 23.502 19.052 42.554 42.553 42.554 1.732 0 3.437-.116 5.115-.317 15.422 62.587 64.331 111.99 126.641 128.106z" fill="#ffcabd"/><g><g><g><ellipse cx="151.738" cy="256.776" fill="#ff8997" rx="38.471" ry="30.636"/></g><g><ellipse cx="360.262" cy="256.776" fill="#ff8997" rx="38.471" ry="30.636"/></g></g></g></g><g><path d="m148.347 223.436c0 4.142 3.358 7.5 7.5 7.5s7.5-3.358 7.5-7.5c0-5.961 4.85-10.811 10.811-10.811s10.812 4.85 10.812 10.811c0 4.142 3.358 7.5 7.5 7.5s7.5-3.358 7.5-7.5c0-14.233-11.579-25.811-25.812-25.811s-25.811 11.579-25.811 25.811z"/><path d="m327.031 223.436c0-5.961 4.85-10.811 10.811-10.811s10.812 4.85 10.812 10.811c0 4.142 3.358 7.5 7.5 7.5s7.5-3.358 7.5-7.5c0-14.233-11.579-25.811-25.812-25.811s-25.811 11.579-25.811 25.811c0 4.142 3.358 7.5 7.5 7.5s7.5-3.357 7.5-7.5z"/><path d="m256 261.188c9.612 0 18.752-4.163 25.078-11.421 2.721-3.123 2.396-7.86-.727-10.582-3.122-2.721-7.86-2.396-10.582.727-3.476 3.989-8.495 6.276-13.769 6.276-5.275 0-10.294-2.288-13.77-6.276-2.721-3.123-7.46-3.448-10.582-.727-3.123 2.721-3.448 7.459-.727 10.582 6.327 7.258 15.467 11.421 25.079 11.421z"/><path d="m30.005 235.046c0 12.903 4.909 24.68 12.956 33.566.675 12.253-.208 23.806-2.672 34.358-4.826 20.674 6.579 41.623 26.53 48.729 16.584 5.908 35.399 9.039 55.973 9.332 4.154 4.39 8.518 8.578 13.083 12.543 1.377 6.794 4.092 16.116 9.412 25.954-12.183 11.944-43.189 47.944-43.189 104.973 0 4.142 3.358 7.5 7.5 7.5h292.802c4.142 0 7.5-3.358 7.5-7.5 0-57-30.974-92.993-43.17-104.955 5.251-9.708 7.98-18.969 9.395-25.973 4.565-3.963 8.928-8.152 13.082-12.541 20.567-.292 39.386-3.423 55.973-9.332 19.951-7.107 31.357-28.056 26.53-48.73-2.463-10.552-3.346-22.105-2.672-34.358 8.047-8.885 12.956-20.662 12.956-33.566 0-11.164-3.676-21.484-9.878-29.819-6.247-45.556-26.421-87.288-58.441-120.795-2.862-2.995-7.61-3.103-10.604-.241-2.995 2.862-3.103 7.609-.241 10.604 25.771 26.968 43.308 59.645 51.351 95.392-7.873-3.907-17.198-5.83-26.599-4.997-53.262-16.46-132.105-52.368-164.363-97.548-1.301-1.827-2.875-4.776-7.22-4.777 0 0 0 0-.001 0-2.61 0-4.989 1.368-6.352 3.512-.185.292-18.479 28.588-70.855 58.721-1.69.972-3.416 1.946-5.178 2.922-3.63 2.01-4.932 6.575-2.929 10.195 2.006 3.624 6.569 4.936 10.194 2.929 42.414-23.482 65.11-46.397 75.102-58.343 37.91 45.523 108.218 78.206 164.506 95.897 2.604 11.809 3.949 24.146 3.949 36.35 0 19.502-3.396 39.251-10.356 58.165-24.358 65.99-88.432 111.724-161.301 110.23-.032-.001-.065 0-.098 0-70.057-1.352-131.056-46.01-154.762-110.217-6.734-18.289-10.36-37.818-10.36-58.178 0-11.745 1.217-23.903 3.949-36.35 20.738-6.512 42.884-14.836 63.105-24.232.03-.014.06-.027.09-.041 3.757-1.747 5.385-6.207 3.639-9.963-1.35-2.904-4.496-4.717-7.799-4.273-3.853.517-21.724 11.28-66.139 25.001-9.235-.827-18.603 1.038-26.573 4.989 2.872-12.686 6.967-25.058 12.25-37 20.581 8.449 44.455.328 55.625-18.939 13.664-23.566 36.668-40.268 63.158-45.78 21.843-4.545 36.686-24.43 35.534-46.105-.119-2.24-.409-4.498-.879-6.76 0-.001 0-.001 0-.002-.074-.356-.153-.711-.235-1.065 10.794-1.755 21.762-2.642 32.714-2.642 45.986 0 89.397 15.061 125.54 43.554 3.252 2.564 7.969 2.006 10.533-1.247 2.564-3.252 2.006-7.969-1.247-10.533-38.811-30.599-85.434-46.773-134.823-46.773-12.993 0-26.009 1.164-38.771 3.463-9.762-14.978-28.041-23.263-46.573-19.41-19.659 4.091-38.323 11.358-55.361 21.316-9.91-12.643-25.19-20.248-41.458-20.248-12.34 0-22.379 10.039-22.379 22.379 0 12.339 10.039 22.379 22.379 22.379 2.283 0 4.372.973 5.828 2.573-12.1 11.749-22.671 25.192-31.294 40.066-10.806 18.64-6.593 41.927 8.883 55.75-8.683 19.115-14.516 39.284-17.37 60.072-6.203 8.333-9.879 18.654-9.879 29.819zm45.858-34.798c-2.11 10.958-3.301 23.083-3.301 34.801 0 11.984 1.242 24.059 3.31 34.793-17.813-2.092-30.867-17.384-30.867-34.796 0-17.909 13.497-32.72 30.858-34.798zm-4.01 137.32c-12.757-4.543-20.047-17.952-16.956-31.189 1.939-8.309 3.027-17.114 3.256-26.31 6.754 3.294 14.286 4.954 21.336 5.026 6.153 21.706 16.363 42.21 29.975 60.287-13.645-1.15-26.245-3.765-37.611-7.814zm156.464 78.832c-6.137 22.189-33.953 32.763-53.071 19.908-3.023-2.032-2.249-5.382-2.26-5.483.57-2.87 1.665-6.001 3.256-8.957 3.355-6.232 8.694-11.463 15.64-14.902 18.282 6.817 31.735 8.479 36.435 9.434zm21.781 1.983c15.222 11.284 18.9 32.948 8.995 47.68-1.212 1.802-3.437 2.67-5.481 2.261-12.192-2.424-22.091-11.778-25.957-24.131 7.652-6.663 13.307-15.563 15.712-26.145 1.746.117 4.459.26 6.731.335zm-93.229-28.974c5.954 3.831 12.123 7.311 18.483 10.427-2.518 2.052-4.817 4.324-6.866 6.786-4.423-4.92-8.487-10.762-11.617-17.213zm237.828 107.591h-277.392c2.412-43.757 25.427-73.001 36.429-84.597 2.051 2.593 4.416 5.245 6.834 7.675-11.821 30.521 24.63 45.338 54.097 32.347 6.166 15.327 18.579 26.055 33.057 29.92 10.816 2.888 18.861-.542 23.819-7.912 4.713-7.009 7.382-15.075 7.974-23.402 40.997-4.573 64.874-21.029 78.774-38.644 11.013 11.546 34.008 40.675 36.408 84.613zm-39.574-107.606c-14.426 29.733-44.205 43.007-76.784 46.677-1.426-6.254-4.198-12.668-8.024-18.139 31.076-2.411 60.098-12.677 84.808-28.538zm111.872-154.348c0 18.19-13.827 32.806-30.867 34.796 2.077-10.798 3.309-22.804 3.309-34.793 0-11.602-1.172-23.742-3.301-34.801 17.608 2.108 30.859 17.125 30.859 34.798zm-26.848 102.523c-11.365 4.048-23.963 6.662-37.611 7.814 13.612-18.076 23.821-38.58 29.974-60.286 7.288-.075 14.78-1.829 21.337-5.026.229 9.196 1.316 18.001 3.256 26.31 3.091 13.235-4.199 26.644-16.956 31.188zm-349.3-298.245c-4.227-4.697-10.332-7.559-17.01-7.559-4.069 0-7.379-3.31-7.379-7.378 0-4.069 3.31-7.379 7.379-7.379 11.148 0 21.653 4.999 28.753 13.384-3.795 2.652-7.85 5.726-11.64 8.849-.034.028-.069.055-.103.083zm-29.499 57.603c24.323-41.953 65.403-71.53 112.363-81.3 18.711-3.89 35.701 10.611 35.751 29 .038 13.802-9.623 26.23-23.651 29.149-30.632 6.373-57.268 25.67-73.079 52.942-8.443 14.561-27.578 19.394-42.017 9.909-.001-.001-.003-.001-.004-.002-13.049-8.581-17.291-26.021-9.363-39.698z"/></g></g></svg>